inDegrees=no
num_controls=7
num_derivatives=13
num_iterations=260
num_multipliers=7
num_parameters=0
num_slacks=7
num_states=26
objective=4.406301
objective_accelerations=0.242316
objective_balance=0.023840
objective_effort=0.330158
objective_height=3.712757
objective_ligament=0.097231
solver_duration=2373.106769
status=Solve_Succeeded
success=true
DataType=double
version=3
OpenSimVersion=4.4-2022-07-23-0e9fedc
endheader
time	/jointset/ground_pelvis/pelvis_tilt/value	/jointset/ground_pelvis/pelvis_tx/value	/jointset/ground_pelvis/pelvis_ty/value	/jointset/hip_l/hip_flexion_l/value	/jointset/hip_l/hip_adduction_l/value	/jointset/hip_l/hip_rotation_l/value	/jointset/back/lumbar_extension/value	/jointset/patellofemoral_l/patellar_flexion_l/value	/jointset/knee_l/knee_flexion_l/value	/jointset/knee_l/knee_adduction_l/value	/jointset/knee_l/knee_rotation_l/value	/jointset/ankle_l/ankle_angle_l/value	/jointset/subtalar_l/subtalar_angle_l/value	/jointset/ground_pelvis/pelvis_tilt/speed	/jointset/ground_pelvis/pelvis_tx/speed	/jointset/ground_pelvis/pelvis_ty/speed	/jointset/hip_l/hip_flexion_l/speed	/jointset/hip_l/hip_adduction_l/speed	/jointset/hip_l/hip_rotation_l/speed	/jointset/back/lumbar_extension/speed	/jointset/patellofemoral_l/patellar_flexion_l/speed	/jointset/knee_l/knee_flexion_l/speed	/jointset/knee_l/knee_adduction_l/speed	/jointset/knee_l/knee_rotation_l/speed	/jointset/ankle_l/ankle_angle_l/speed	/jointset/subtalar_l/subtalar_angle_l/speed	/forceset/tau_hip_flexion_l	/forceset/tau_hip_adduction_l	/forceset/tau_hip_rotation_l	/forceset/tau_knee_flexion_l	/forceset/tau_ankle_angle_l	/forceset/tau_subtalar_angle_l	/forceset/tau_lumbar_extension	lambda_cid13_p0	lambda_cid13_p1	lambda_cid13_p2	lambda_cid13_p3	lambda_cid13_p4	lambda_cid13_p5	lambda_cid14_p0	/jointset/ground_pelvis/pelvis_tilt/accel	/jointset/ground_pelvis/pelvis_tx/accel	/jointset/ground_pelvis/pelvis_ty/accel	/jointset/hip_l/hip_flexion_l/accel	/jointset/hip_l/hip_adduction_l/accel	/jointset/hip_l/hip_rotation_l/accel	/jointset/back/lumbar_extension/accel	/jointset/patellofemoral_l/patellar_flexion_l/accel	/jointset/knee_l/knee_flexion_l/accel	/jointset/knee_l/knee_adduction_l/accel	/jointset/knee_l/knee_rotation_l/accel	/jointset/ankle_l/ankle_angle_l/accel	/jointset/subtalar_l/subtalar_angle_l/accel	gamma_cid13_p0	gamma_cid13_p1	gamma_cid13_p2	gamma_cid13_p3	gamma_cid13_p4	gamma_cid13_p5	gamma_cid14_p0
0.5	0.03681547699404385	0.01623128337164993	0.8582992679820761	0.608937698867981	-0.3275826926236963	-0.126382679989633	-0.7562886108592145	0.7909082473051579	0.7909082473051343	-0.1110909032689705	-0.1745329068976415	0.2037635481860688	0.03738588749326077	0.2208558843463729	-0.05423877997761579	-0.2338835246837278	0.7364147188449459	-0.06085653014840699	0.4431558832342687	-0.8476176917810844	1.440654726833854	1.440654726833845	0.1209164359361074	3.814158865572696e-06	0.5834807144360705	0.1492554376885605	-0.1685425175935998	0.02484279095493483	-0.005274057536200414	-0.2540109110776224	0.03166309253479604	0.04294274439711065	0.2637765674300216	-33.58781229890395	-15.70159927527787	5.398632091099484	-2.125320148292221	-699.8971469749506	-82.70113589445786	-14.80684638149332	-0.0008229367803707841	0.3341905765061047	-0.1504430877385176	-0.9714186912550575	0.1491844598191806	-0.3784426317855251	1.329889692495219	-1.138828983479226	-1.138828983479235	-0.3207385200221615	0.01563483677271799	-0.2413117368938118	0.1840387227038235	-2.053775853765649e-08	-4.568905417960949e-07	2.281759330789938e-08	-6.835559597194956e-08	-2.938825024771297e-08	-2.300741775506875e-07	-4.032779466728778e-08
0.51	0.03902353278747971	0.01570561125898421	0.8559534381099747	0.6162522462899863	-0.3281839424963024	-0.1219712592783363	-0.7646971127027766	0.8052556257407049	0.8052556257406716	-0.1098977394916782	-0.1745327975625393	0.2095853030835236	0.03888716291141939	0.2207253772853835	-0.05089440423163713	-0.2352259133651005	0.7263763773617459	-0.059392506873704	0.4390592050594228	-0.8339813164835614	1.428600361653962	1.428600361653961	0.1177203100074872	9.373666098961189e-06	0.58078327343186	0.1509733525942439	-0.1715170705622622	0.02561578586871474	-0.005425379711757104	-0.257455786938404	0.02894723815060532	0.04328199754708004	0.2678051690575089	-34.59210332861569	-15.66753941523326	5.386858512089541	-1.754096847291808	-702.6811733571988	-82.81517406955018	-14.27865881500973	-0.02364935762091076	0.3347338402118681	-0.1176620020172752	-1.037799357969573	0.1451866547537923	-0.4356778568626424	1.395715515567179	-1.271822096160883	-1.271822096159863	-0.3185140553669642	-0.008284582595595681	-0.2970232021240031	0.1617880357843624	-3.800821488374337e-08	-3.448520642645127e-07	1.70410473239268e-07	-4.119351117689276e-08	-4.577129226609886e-08	-2.339428459425468e-07	-4.766321048383026e-08
0.52	0.04122938655693282	0.01521341745709187	0.8535958793023236	0.6234628588009361	-0.328770517057469	-0.1176028848380943	-0.7729662099799263	0.81947584416227	0.8194758441622266	-0.1087364298588902	-0.1745328928504027	0.2153774709869485	0.04040484151089167	0.2204154795498885	-0.04754311782293893	-0.2362293117936996	0.7156277366338619	-0.05792146786068441	0.4345466290234364	-0.8197367784985827	1.415222724037401	1.415222724037406	0.1145456070354667	-3.711043843751453e-05	0.577563315630076	0.1525360739512776	-0.1744916235309256	0.02638878078249516	-0.005576701887317268	-0.2609006627991857	0.02623138376641492	0.04362125069705037	0.2718337706849953	-35.59907284223008	-15.63370277059615	5.375911504535885	-1.40462513713007	-705.5253983372311	-82.94628880903319	-13.74769468643243	-0.03670107168147312	0.3355727090500129	-0.08264503718377468	-1.113478540191831	0.1505876074824978	-0.4616222040136149	1.451522229986395	-1.403483470813215	-1.403483470813229	-0.3164539287022303	0.005226114418735644	-0.345815096408501	0.1530000129738684	-7.145411648801506e-08	-1.666627689059328e-07	4.389959449323661e-07	6.723572795209854e-09	-8.067245292303629e-08	-2.495043379035807e-07	-6.332457125055422e-08
0.53	0.04343126778981067	0.01475472849137822	0.8512300081174432	0.6305624266648172	-0.3293425086422764	-0.1132804169542349	-0.7810899453759786	0.8335556383420183	0.833555638341974	-0.1076078634975565	-0.1745329251994329	0.2211347567135815	0.04193710239627459	0.2199313773349037	-0.04419811282991197	-0.2368854251297568	0.7041717898019336	-0.05647696771748106	0.4298771503734979	-0.8049197231701861	1.400517613398731	1.400517613398743	0.1111719615743157	1.717546431983925e-05	0.573803781754043	0.1538854717343458	-0.1773884537649585	0.02735415781011777	-0.005728889729411239	-0.2642924103486665	0.02338694186381746	0.04377412314965597	0.2757698260720085	-36.65825264728327	-15.49643711288324	5.333234466718793	-0.9411628862556728	-708.3698237894571	-82.88515684059902	-13.21470967105379	-0.05868252454795178	0.3334551463280538	-0.04818927479760617	-1.17877116647377	0.1412747722640367	-0.4801531023789377	1.510383815540438	-1.53678532728209	-1.536785327281009	-0.347163990688147	0.003907339606190894	-0.4045308906432229	0.1212584500724828	-8.715387929973452e-08	-4.7396758913367e-08	5.805915651839382e-07	3.499711100980293e-08	-9.686085932110909e-08	-2.419300765741764e-07	-6.96240862044029e-08
0.54	0.04562742445491056	0.01432938772597462	0.8488593568406061	0.6375440113780232	-0.3299000765147454	-0.1090067523382543	-0.7890627928924921	0.847481829322002	0.8474818293219573	-0.1065129024180093	-0.1745327585520097	0.2268517454299657	0.04348192701730812	0.2192705659942814	-0.04087347776093023	-0.2371853301850522	0.6920311064987867	-0.05503672539328824	0.4247859754477614	-0.7895592025908227	1.384502084084533	1.384502084084552	0.1078245506785011	6.561823155443441e-06	0.5695039135803093	0.1550488210813813	-0.180285283998991	0.02831953483774348	-0.005881077571509206	-0.2676841578981471	0.0205424999612208	0.04392699560226525	0.2797058814590213	-37.72086107989321	-15.35820017446689	5.28997969119872	-0.501532812714761	-711.283554242122	-82.85355375793185	-12.68059610923072	-0.07204289680898124	0.3314987242409651	-0.01140338103139847	-1.250425834435592	0.1497360436803978	-0.5459614591731825	1.560215280179715	-1.665567205918742	-1.665567205918734	-0.3112070156349335	-0.007753794365590988	-0.4538819559486447	0.1157903257673149	-8.321961621331086e-08	6.677531099778411e-09	5.816877753299903e-07	4.153736455651289e-08	-9.23457929221399e-08	-2.087588116042869e-07	-6.556581430145325e-08
0.55	0.04781608185763422	0.01393717687941263	0.8464875064274756	0.6444008336895989	-0.3304432564430443	-0.104785735259279	-0.7968794095809141	0.8612413977048039	0.8612413977048032	-0.1054514673060059	-0.1745327431338236	0.2325230855059559	0.0450374556424689	0.2184318874360306	-0.03757347765571638	-0.2371228965711817	0.6792211702651239	-0.05360197170604409	0.4193672488327433	-0.7736839946144166	1.367197662862476	1.367197662862496	0.1044526192953856	-3.025598922772004e-06	0.5646766049495543	0.1560218839042817	-0.1829789878123718	0.02904614415167887	-0.006006738181208152	-0.2712411219708212	0.01784818788906423	0.04411795505925146	0.2834726748211	-38.73304223378988	-15.24685786806196	5.252752656737565	-0.06760290092818388	-714.1629461485498	-82.92091484618462	-12.14635360526908	-0.09414374046940109	0.3285417589755286	0.02432713646982163	-1.313117015008954	0.1398395097882446	-0.5474205462010903	1.613194628260876	-1.794956351909794	-1.794956351909595	-0.3516387555708665	0.002616207931905311	-0.5102768494654004	0.08273709269519638	-7.655662103309876e-08	5.313919023292218e-08	5.634938680610723e-07	4.514391495019356e-08	-8.437505848786942e-08	-1.714952394706325e-07	-6.008312394406404e-08
